<svg xmlns="http://www.w3.org/2000/svg" viewBox="0 0 75 75"><defs><style>.cls-1{fill:#5ba531;}.cls-2{fill:#fff;}</style></defs><g id="圖層_2" data-name="圖層 2"><g id="圖層_1-2" data-name="圖層 1"><circle class="cls-1" cx="37.5" cy="37.5" r="37.5"/><path class="cls-2" d="M55.21,47a1.92,1.92,0,0,1-.2.19,23.33,23.33,0,0,1-2.18,1.73c-4,3-11.63,8.59-14.51,10.2-3.79,2.14-2.49-1.5-2.18-3.52a1.93,1.93,0,0,0-1.31-2.4C23.6,52,14.92,44.3,14.92,35c0-10.14,10.26-18.37,22.94-18.37S60.79,24.83,60.79,35A16.39,16.39,0,0,1,55.21,47Z"/><path class="cls-1" d="M23.44,40V30.23h2v8.11h5V40Z"/><path class="cls-1" d="M31.74,40V30.15h2V40Z"/><path class="cls-1" d="M35.65,40V30.15h1.93l4,6.58V30.15h1.84V40h-2l-4-6.42V40Z"/><path class="cls-1" d="M45.56,40V30.15h7.3v1.67H47.55V34h4.94v1.65H47.55v2.69h5.5V40Z"/></g></g></svg>